<?xml version="1.0" standalone="no"?>
<!DOCTYPE svg PUBLIC "-//W3C//DTD SVG 20010904//EN"
 "http://www.w3.org/TR/2001/REC-SVG-20010904/DTD/svg10.dtd">
<svg version="1.0" xmlns="http://www.w3.org/2000/svg"
 width="1145.000000pt" height="1133.000000pt" viewBox="0 0 1145.000000 1133.000000"
 preserveAspectRatio="xMidYMid meet">
<metadata>
Created by potrace 1.13, written by Peter Selinger 2001-2015
</metadata>
<g transform="translate(0.000000,1133.000000) scale(0.100000,-0.100000)"
fill="#660000" stroke="none">
<path d="M5320 11319 c-1886 -114 -3586 -1161 -4550 -2804 -187 -320 -379
-749 -495 -1107 -61 -190 -149 -528 -139 -537 4 -5 363 -20 371 -16 1 0 18 64
38 140 140 546 403 1131 724 1610 199 297 382 517 660 796 452 451 871 750
1435 1024 1415 688 3047 708 4496 56 620 -280 1229 -721 1697 -1232 588 -641
992 -1374 1222 -2215 l49 -178 163 2 c182 4 209 7 209 29 0 8 -14 69 -30 136
-461 1844 -1796 3325 -3579 3972 -705 256 -1506 370 -2271 324z"/>
<path d="M5490 10454 c-492 -33 -868 -107 -1294 -254 -509 -176 -986 -445
-1431 -807 -154 -125 -473 -443 -601 -598 -453 -549 -764 -1153 -934 -1810
l-39 -150 102 -6 c56 -4 145 -7 197 -8 l95 -1 24 93 c118 460 358 967 653
1380 300 419 708 809 1139 1090 901 587 1982 811 3049 631 1349 -227 2529
-1117 3126 -2359 116 -241 217 -516 275 -744 l24 -93 74 6 c41 3 127 6 193 6
142 0 135 -17 79 190 -82 304 -171 539 -316 835 -169 346 -353 630 -609 940
-128 155 -447 473 -601 598 -734 597 -1561 943 -2485 1042 -138 15 -603 27
-720 19z"/>
<path d="M5505 9490 c-1768 -93 -3242 -1409 -3534 -3155 -38 -228 -46 -335
-46 -630 0 -295 8 -402 46 -630 201 -1206 987 -2253 2089 -2784 531 -255 1049
-373 1650 -373 443 0 792 56 1200 192 830 276 1524 819 2006 1571 104 164 275
507 343 689 324 877 321 1822 -11 2699 -69 180 -226 494 -333 660 -748 1171
-2030 1833 -3410 1761z m640 -394 c753 -107 1399 -418 1935 -934 574 -551 929
-1273 1026 -2082 35 -293 20 -700 -37 -1000 -244 -1279 -1176 -2303 -2419
-2659 -298 -86 -530 -120 -855 -128 -314 -7 -544 14 -815 74 -526 116 -991
340 -1425 687 -131 104 -398 372 -509 511 -412 514 -656 1106 -738 1790 -6 55
-12 213 -12 350 0 138 6 295 12 350 70 582 248 1075 553 1535 136 204 248 340
434 526 292 293 567 490 930 665 376 182 741 284 1176 329 129 13 615 4 744
-14z"/>
<path d="M4606 8358 c-7 -18 -79 -179 -160 -357 -80 -178 -144 -326 -141 -329
2 -3 63 12 135 33 71 21 132 36 134 34 2 -2 54 -175 116 -384 62 -209 113
-381 114 -382 6 -7 431 126 434 135 2 6 -47 180 -108 387 -62 207 -110 378
-108 381 3 2 69 23 147 46 112 33 139 44 129 53 -14 14 -666 415 -673 415 -3
0 -11 -15 -19 -32z"/>
<path d="M6545 8314 c-60 -30 -219 -108 -353 -173 l-243 -119 135 -57 134 -57
-28 -67 c-16 -36 -87 -203 -159 -370 -72 -168 -130 -306 -128 -307 7 -7 403
-174 412 -174 7 0 80 161 164 358 84 196 157 361 162 366 4 5 67 -16 149 -52
127 -55 140 -59 134 -39 -57 180 -254 742 -260 743 -5 2 -58 -22 -119 -52z"/>
<path d="M7280 7602 c0 -4 40 -55 90 -113 l89 -107 -310 -256 c-170 -142 -309
-259 -309 -262 0 -2 65 -83 145 -179 l145 -175 233 193 c330 274 383 317 390
317 3 0 49 -52 101 -116 56 -68 98 -110 100 -103 9 26 118 781 113 785 -2 2
-147 6 -323 9 -175 3 -352 8 -391 10 -40 3 -73 1 -73 -3z"/>
<path d="M3256 7548 c-8 -64 -39 -712 -35 -731 3 -13 29 2 113 68 60 46 112
83 115 81 3 -3 114 -144 246 -315 132 -171 244 -311 249 -311 11 0 356 269
356 278 0 4 -110 149 -245 322 -134 173 -241 317 -237 321 4 3 58 45 120 93
62 49 111 90 109 92 -3 3 -768 144 -782 144 -2 0 -6 -19 -9 -42z"/>
<path d="M3740 4787 c-133 -171 -247 -313 -254 -314 -6 -1 -58 35 -116 81 -92
74 -105 81 -108 62 -3 -24 35 -767 40 -770 6 -5 788 139 788 145 0 3 -52 46
-115 94 -63 48 -115 91 -115 96 0 5 110 150 244 323 l245 315 -172 134 c-95
73 -177 136 -183 140 -7 4 -105 -113 -254 -306z"/>
<path d="M7025 4749 c-77 -93 -140 -173 -140 -178 0 -4 135 -120 300 -256 165
-136 304 -251 308 -255 4 -4 -33 -56 -82 -115 -50 -60 -89 -110 -87 -112 2 -2
180 -1 395 3 272 5 391 10 391 18 1 33 -115 786 -121 784 -4 -2 -46 -50 -94
-108 -48 -58 -90 -109 -94 -113 -4 -4 -146 107 -315 248 -170 140 -311 255
-315 254 -3 0 -69 -76 -146 -170z"/>
<path d="M4730 4075 c-62 -212 -114 -385 -114 -385 -1 0 -62 18 -136 40 -74
21 -136 38 -137 36 -3 -2 313 -714 321 -723 4 -5 673 413 675 422 1 5 -58 28
-133 50 -74 22 -137 42 -140 45 -3 3 44 172 104 375 61 204 111 377 112 385 2
11 -49 30 -202 76 -113 34 -212 63 -220 63 -12 1 -43 -90 -130 -384z"/>
<path d="M6150 4361 c-138 -60 -204 -93 -202 -102 2 -8 70 -169 152 -359 82
-190 150 -351 152 -359 2 -10 -38 -32 -124 -69 -71 -31 -128 -58 -128 -61 1
-6 691 -343 705 -345 8 -1 268 755 262 761 -2 1 -66 -24 -142 -57 -76 -33
-139 -60 -140 -60 -1 0 -73 167 -160 370 -88 204 -162 370 -165 370 -3 -1 -97
-41 -210 -89z"/>
<path d="M1383 4373 c-42 -2 -73 -8 -73 -14 0 -16 95 -267 147 -387 171 -403
425 -812 721 -1167 111 -132 439 -457 577 -571 548 -453 1177 -771 1855 -938
401 -99 671 -130 1120 -130 358 0 482 9 785 60 789 130 1555 483 2190 1008
138 114 466 439 577 571 331 397 594 839 777 1305 73 185 95 249 89 254 -1 2
-92 6 -201 10 -183 6 -198 5 -203 -11 -32 -94 -123 -307 -185 -433 -567 -1154
-1630 -1996 -2879 -2280 -334 -76 -588 -103 -950 -103 -296 0 -462 13 -728 59
-861 147 -1663 564 -2287 1189 -414 413 -735 900 -949 1438 l-59 147 -126 -2
c-69 -1 -159 -4 -198 -5z"/>
<path d="M318 4343 c-117 -3 -158 -7 -158 -16 0 -57 156 -545 245 -767 746
-1860 2417 -3191 4385 -3494 337 -52 457 -60 880 -60 472 0 679 18 1080 95
722 139 1426 427 2040 834 337 223 571 416 876 720 304 304 497 537 719 870
279 418 528 931 675 1390 37 116 121 417 117 421 -1 1 -87 4 -191 5 l-190 4
-18 -65 c-169 -588 -383 -1059 -697 -1535 -355 -537 -827 -1024 -1356 -1400
-1590 -1129 -3678 -1288 -5425 -413 -825 413 -1521 1028 -2035 1798 -338 507
-528 930 -721 1603 -4 12 -14 16 -37 15 -18 -1 -103 -4 -189 -5z"/>
</g>
</svg>
