<?xml version="1.0" standalone="no"?>
<!DOCTYPE svg PUBLIC "-//W3C//DTD SVG 20010904//EN"
 "http://www.w3.org/TR/2001/REC-SVG-20010904/DTD/svg10.dtd">
<svg version="1.0" xmlns="http://www.w3.org/2000/svg"
 width="1089.000000pt" height="941.000000pt" viewBox="0 0 1089.000000 941.000000"
 preserveAspectRatio="xMidYMid meet">
<metadata>
Created by potrace 1.13, written by Peter Selinger 2001-2015
</metadata>
<g transform="translate(0.000000,941.000000) scale(0.100000,-0.100000)"
fill="#660000" stroke="none">
<path d="M545 9394 c-38 -8 -113 -35 -165 -61 -77 -38 -109 -61 -176 -127 -66
-67 -89 -99 -127 -176 -84 -173 -77 246 -77 -4325 0 -3685 2 -4083 16 -4153
52 -253 246 -457 504 -529 62 -17 259 -18 4925 -18 4672 0 4863 1 4925 18 206
58 356 182 451 372 75 153 69 -238 67 4342 l-3 4118 -28 80 c-83 236 -287 416
-520 460 -117 22 -9685 21 -9792 -1z m9791 -396 c70 -37 140 -117 159 -182 13
-45 15 -530 13 -4131 l-3 -4080 -23 -43 c-35 -66 -88 -119 -150 -149 l-57 -28
-4295 -1 c-3782 -2 -4287 0 -4225 13 1039 215 1796 465 2523 832 1204 608
1971 1429 2271 2431 225 750 190 1632 -91 2330 -117 291 -312 623 -514 875
-126 158 -462 489 -634 627 -332 263 -648 463 -1068 672 -721 361 -1532 626
-2527 826 l-190 38 4380 -1 4380 -2 51 -27z"/>
</g>
</svg>
