<?xml version="1.0" standalone="no"?>
<!DOCTYPE svg PUBLIC "-//W3C//DTD SVG 20010904//EN"
 "http://www.w3.org/TR/2001/REC-SVG-20010904/DTD/svg10.dtd">
<svg version="1.0" xmlns="http://www.w3.org/2000/svg"
 width="718.000000pt" height="794.000000pt" viewBox="0 0 718.000000 794.000000"
 preserveAspectRatio="xMidYMid meet">
<metadata>
Created by potrace 1.13, written by Peter Selinger 2001-2015
</metadata>
<g transform="translate(0.000000,794.000000) scale(0.100000,-0.100000)"
fill="#660000" stroke="none">
<path d="M5748 7841 l-75 -99 330 -253 331 -254 -3012 -3 -3012 -2 0 -125 0
-125 2978 -2 2978 -3 -303 -233 c-214 -165 -301 -237 -295 -245 5 -7 40 -52
77 -100 60 -79 69 -87 84 -74 90 77 838 640 861 648 16 6 30 17 30 24 0 7 23
30 51 51 40 29 49 41 45 58 -3 11 2 28 11 38 9 10 14 20 12 22 -16 14 -996
763 -1005 769 -7 4 -41 -33 -86 -92z"/>
<path d="M2973 6635 c-641 -73 -1196 -300 -1713 -701 -143 -110 -407 -373
-524 -519 -274 -345 -479 -737 -601 -1150 -215 -726 -167 -1544 130 -2240 440
-1031 1365 -1769 2465 -1969 213 -39 348 -50 595 -50 309 0 540 27 810 95
1042 263 1885 1002 2285 2004 94 235 167 517 205 795 22 156 30 532 16 695
-69 786 -388 1493 -925 2044 -285 292 -562 494 -921 671 -331 163 -629 255
-1003 311 -181 27 -637 35 -819 14z m241 -357 c3 -68 8 -296 11 -508 3 -212 8
-433 11 -492 l6 -108 67 0 c36 0 90 3 120 7 l54 6 -7 411 c-3 226 -9 501 -13
610 l-6 199 99 -7 c380 -27 798 -143 1145 -316 80 -41 294 -162 307 -175 2 -1
-161 -232 -362 -513 -201 -281 -366 -514 -366 -519 0 -5 43 -39 96 -77 80 -57
98 -66 109 -55 7 8 169 232 360 499 190 267 353 491 360 499 12 12 21 9 62
-25 257 -210 496 -480 674 -765 82 -131 233 -434 226 -452 -3 -7 -274 -104
-603 -216 -330 -112 -603 -207 -608 -211 -11 -11 63 -230 78 -230 7 0 284 92
616 205 332 113 607 202 611 198 27 -27 108 -421 129 -622 13 -132 13 -449 0
-582 -71 -721 -372 -1360 -880 -1870 -183 -185 -311 -291 -506 -418 -673 -443
-1515 -602 -2308 -435 -742 157 -1393 576 -1849 1191 -539 727 -726 1675 -506
2563 17 69 34 130 37 136 5 6 186 -55 497 -168 270 -97 533 -193 586 -212 l95
-34 42 115 c23 64 41 118 39 120 -2 2 -253 93 -558 203 -305 111 -567 206
-582 212 -35 14 -33 23 30 162 144 314 358 626 599 871 102 104 258 245 272
245 4 0 160 -225 347 -500 187 -274 344 -499 348 -500 5 0 53 30 107 67 l98
67 -133 195 c-73 108 -230 338 -348 511 l-215 315 80 51 c379 244 825 402
1294 459 60 7 137 13 170 14 l62 1 6 -122z"/>
<path d="M3901 5377 c-151 -364 -344 -830 -429 -1034 l-154 -373 -42 0 c-61 0
-151 -25 -236 -67 -57 -27 -95 -56 -155 -117 -132 -132 -185 -259 -185 -439 0
-124 13 -183 62 -286 79 -165 247 -296 432 -336 101 -23 233 -16 330 16 287
95 472 394 427 688 -23 149 -77 257 -182 361 l-66 66 238 1090 c130 599 237
1090 236 1091 -2 1 -126 -296 -276 -660z m-661 -1590 c0 -7 -29 -69 -64 -137
-35 -69 -74 -159 -87 -200 -41 -134 -26 -254 38 -312 36 -33 134 -70 199 -76
84 -6 141 15 191 72 37 42 40 51 87 272 27 126 52 235 56 242 8 16 45 -29 77
-93 124 -244 23 -524 -232 -642 -48 -21 -79 -28 -151 -31 -151 -7 -261 36
-359 139 -103 108 -150 254 -127 391 30 171 139 303 302 366 66 25 70 26 70 9z"/>
</g>
</svg>
