<?xml version="1.0" standalone="no"?>
<!DOCTYPE svg PUBLIC "-//W3C//DTD SVG 20010904//EN"
 "http://www.w3.org/TR/2001/REC-SVG-20010904/DTD/svg10.dtd">
<svg version="1.0" xmlns="http://www.w3.org/2000/svg"
 width="526.000000pt" height="1088.000000pt" viewBox="0 0 526.000000 1088.000000"
 preserveAspectRatio="xMidYMid meet">
<metadata>
Created by potrace 1.13, written by Peter Selinger 2001-2015
</metadata>
<g transform="translate(0.000000,1088.000000) scale(0.100000,-0.100000)"
fill="#660000" stroke="none">
<path d="M1949 10870 c-223 -26 -416 -132 -477 -262 l-20 -43 25 -2100 c30
-2586 27 -3402 -17 -4490 -21 -527 -60 -1096 -96 -1400 -64 -551 -122 -726
-304 -906 -70 -70 -103 -95 -171 -128 -145 -70 -216 -84 -424 -85 -183 -1
-302 16 -425 59 -39 14 -40 13 -40 -8 0 -12 7 -335 15 -717 8 -382 15 -709 15
-726 l0 -31 127 -14 c161 -18 555 -18 689 -1 702 89 1217 434 1552 1037 221
400 370 972 388 1495 14 418 34 3679 34 5681 l0 2286 -39 59 c-149 227 -461
337 -832 294z m416 -183 c81 -27 184 -82 220 -118 l20 -21 -45 -39 c-61 -53
-158 -102 -265 -135 -79 -24 -107 -27 -225 -27 -149 -1 -228 15 -313 61 -50
27 -137 114 -137 137 0 17 71 80 117 103 109 55 205 72 393 68 135 -3 165 -6
235 -29z m295 -2517 l0 -2210 -494 0 c-323 0 -497 4 -501 10 -6 10 -57 4321
-51 4327 1 1 32 -13 68 -32 112 -60 200 -78 378 -78 167 -1 242 11 366 58 74
28 192 94 214 119 7 9 14 16 16 16 2 0 4 -994 4 -2210z"/>
<path d="M3955 5407 l-441 -492 258 -3 258 -2 0 -1440 0 -1440 -259 -2 -259
-3 439 -490 c242 -269 443 -491 448 -493 5 -2 201 219 435 490 l425 493 -240
3 -239 2 0 1440 0 1440 238 2 238 3 -422 490 c-233 269 -426 491 -431 492 -4
1 -206 -219 -448 -490z"/>
</g>
</svg>
