<?xml version="1.0" standalone="no"?>
<!DOCTYPE svg PUBLIC "-//W3C//DTD SVG 20010904//EN"
 "http://www.w3.org/TR/2001/REC-SVG-20010904/DTD/svg10.dtd">
<svg version="1.0" xmlns="http://www.w3.org/2000/svg"
 width="1481.000000pt" height="679.000000pt" viewBox="0 0 1481.000000 679.000000"
 preserveAspectRatio="xMidYMid meet">
<metadata>
Created by potrace 1.13, written by Peter Selinger 2001-2015
</metadata>
<g transform="translate(0.000000,679.000000) scale(0.100000,-0.100000)"
fill="#660000" stroke="none">
<path d="M545 6774 c-192 -37 -379 -183 -469 -364 -83 -169 -77 92 -74 -3055
l3 -2800 28 -80 c75 -213 239 -376 452 -447 l70 -23 6820 -3 c6233 -2 6826 -1
6895 14 207 44 383 185 477 379 68 144 63 -81 61 3032 l-3 2818 -23 65 c-40
112 -91 190 -176 276 -90 90 -153 129 -271 171 l-80 28 -6820 2 c-5757 1
-6831 -1 -6890 -13z m13687 -377 c67 -26 141 -97 175 -165 l28 -57 -1 -2780 0
-2780 -23 -52 c-29 -66 -110 -143 -176 -169 -49 -19 -160 -19 -6835 -19
l-6785 0 -57 28 c-72 35 -141 111 -164 180 -17 49 -18 194 -19 2797 -1 2893
-2 2806 42 2878 46 74 113 124 196 147 44 12 1022 13 6812 12 6540 -2 6762 -3
6807 -20z"/>
<path d="M3504 4788 c3 -13 11 -144 17 -293 12 -276 1 -1269 -22 -2024 -5
-183 -7 -336 -4 -339 6 -7 8426 1288 8437 1298 8 6 -8369 1381 -8411 1380 -19
0 -22 -4 -17 -22z"/>
</g>
</svg>
