<?xml version="1.0" standalone="no"?>
<!DOCTYPE svg PUBLIC "-//W3C//DTD SVG 20010904//EN"
 "http://www.w3.org/TR/2001/REC-SVG-20010904/DTD/svg10.dtd">
<svg version="1.0" xmlns="http://www.w3.org/2000/svg"
 width="1229.000000pt" height="667.000000pt" viewBox="0 0 1229.000000 667.000000"
 preserveAspectRatio="xMidYMid meet">
<metadata>
Created by potrace 1.13, written by Peter Selinger 2001-2015
</metadata>
<g transform="translate(0.000000,667.000000) scale(0.100000,-0.100000)"
fill="#660000" stroke="none">
<path d="M2757 6580 c-4 -51 -7 -1523 -7 -3272 0 -2818 2 -3178 15 -3178 11 0
15 -11 15 -40 l0 -40 4744 0 4743 0 6 103 c5 72 11 5366 7 6446 l0 74 -82 -7
c-288 -22 -500 -143 -750 -426 -162 -183 -325 -341 -398 -383 -140 -81 -318
-113 -475 -84 -213 39 -316 113 -587 419 -249 281 -406 393 -635 450 -74 19
-114 22 -253 22 -190 -1 -268 -17 -407 -83 -167 -80 -275 -173 -506 -433 -152
-172 -243 -253 -347 -307 -174 -91 -386 -104 -569 -35 -138 52 -230 128 -434
357 -227 255 -322 336 -482 413 -149 73 -221 87 -425 87 -208 0 -277 -15 -435
-93 -162 -80 -248 -156 -514 -453 -242 -272 -388 -351 -641 -351 -259 0 -406
86 -683 399 -218 246 -324 336 -490 416 -99 47 -206 75 -320 85 l-84 6 -6 -92z
m3388 -224 c159 -51 250 -123 475 -375 165 -186 231 -250 335 -323 197 -139
421 -196 672 -170 293 31 481 145 768 467 221 248 297 315 428 375 196 91 470
74 647 -41 98 -63 161 -122 305 -285 231 -259 347 -359 508 -434 137 -64 235
-84 417 -83 133 0 168 4 252 26 111 29 243 94 338 166 69 53 206 190 359 361
141 158 277 270 359 295 l22 6 0 -2990 0 -2991 -4510 0 -4510 0 0 2990 c0
1645 2 2990 5 2990 11 0 91 -43 135 -73 66 -45 174 -152 325 -322 223 -251
373 -361 578 -424 223 -68 525 -43 727 59 145 74 249 164 462 403 250 278 344
347 543 393 93 21 261 12 360 -20z"/>
<path d="M611 5938 l-612 -683 356 -3 355 -2 0 -1935 0 -1935 -356 -2 -356 -3
612 -683 c336 -375 615 -682 620 -682 7 0 1172 1345 1178 1362 2 4 -145 8
-327 8 l-331 0 0 1935 0 1935 332 2 331 3 -588 683 c-324 375 -592 682 -595
682 -4 0 -283 -307 -619 -682z"/>
</g>
</svg>
