<?xml version="1.0" standalone="no"?>
<!DOCTYPE svg PUBLIC "-//W3C//DTD SVG 20010904//EN"
 "http://www.w3.org/TR/2001/REC-SVG-20010904/DTD/svg10.dtd">
<svg version="1.0" xmlns="http://www.w3.org/2000/svg"
 width="639.000000pt" height="844.000000pt" viewBox="0 0 639.000000 844.000000"
 preserveAspectRatio="xMidYMid meet">
<metadata>
Created by potrace 1.13, written by Peter Selinger 2001-2015
</metadata>
<g transform="translate(0.000000,844.000000) scale(0.100000,-0.100000)"
fill="#660000" stroke="none">
<path d="M5060 4220 l0 -4220 665 0 665 0 0 4220 0 4220 -665 0 -665 0 0
-4220z"/>
<path d="M0 4055 c0 -1878 3 -3415 6 -3415 6 0 4833 3087 4847 3100 8 7 -15
946 -24 953 -2 2 -1079 622 -2394 1377 -1314 755 -2400 1379 -2412 1386 l-23
14 0 -3415z"/>
</g>
</svg>
