<?xml version="1.0" standalone="no"?>
<!DOCTYPE svg PUBLIC "-//W3C//DTD SVG 20010904//EN"
 "http://www.w3.org/TR/2001/REC-SVG-20010904/DTD/svg10.dtd">
<svg version="1.0" xmlns="http://www.w3.org/2000/svg"
 width="1043.000000pt" height="869.000000pt" viewBox="0 0 1043.000000 869.000000"
 preserveAspectRatio="xMidYMid meet">
<metadata>
Created by potrace 1.13, written by Peter Selinger 2001-2015
</metadata>
<g transform="translate(0.000000,869.000000) scale(0.100000,-0.100000)"
fill="#660000" stroke="none">
<path d="M0 6450 l0 -2240 1860 0 1859 0 10 -37 c78 -289 96 -427 96 -723 0
-259 -7 -341 -56 -690 -36 -257 -105 -550 -137 -582 -5 -5 -145 3 -323 17
-173 14 -326 25 -341 23 -25 -3 0 -47 647 -1103 371 -605 678 -1101 682 -1102
7 -2 1259 2164 1272 2200 4 10 -87 8 -470 -10 l-136 -6 -7 68 c-4 37 -20 138
-36 224 -110 604 -282 1138 -506 1570 -41 79 -74 146 -74 147 0 2 824 4 1830
4 l1830 0 9 -23 c15 -38 59 -243 76 -352 22 -139 30 -443 16 -590 -37 -371
-81 -665 -129 -855 -37 -145 -56 -190 -79 -190 -10 0 -163 12 -341 26 -178 14
-325 24 -328 21 -3 -3 1336 -2200 1351 -2215 1 -1 289 495 639 1104 350 609
634 1109 631 1112 -2 3 -114 0 -247 -7 -134 -6 -268 -11 -299 -11 l-55 0 -18
118 c-23 157 -78 431 -122 605 -107 428 -228 766 -388 1082 -44 88 -82 163
-84 168 -2 4 402 7 897 7 l901 0 0 2240 0 2240 -5215 0 -5215 0 0 -2240z
m10058 -2 l2 -1868 -842 0 -843 1 -74 85 c-120 138 -315 291 -471 369 -63 32
-181 77 -186 72 -2 -2 29 -69 69 -148 63 -123 167 -357 167 -374 0 -3 -471 -5
-1046 -5 l-1047 0 48 42 c208 183 208 523 0 706 -186 164 -469 157 -643 -16
-191 -190 -191 -484 -2 -674 l58 -58 -582 0 -583 0 -129 128 c-88 88 -163 150
-236 199 -174 116 -403 215 -350 151 28 -35 222 -446 222 -472 0 -3 -724 -6
-1610 -6 l-1610 0 0 1336 c0 1065 3 1335 13 1330 85 -36 154 -48 245 -44 87 3
105 7 175 41 394 186 351 752 -66 879 -81 24 -214 22 -287 -6 -88 -34 -80 -41
-80 81 0 60 3 113 7 116 3 4 2182 6 4842 5 l4836 -3 3 -1867z"/>
<path d="M5451 8014 c-226 -61 -377 -294 -341 -528 36 -234 227 -396 465 -396
143 0 249 45 343 144 247 261 124 690 -223 781 -73 19 -173 18 -244 -1z"/>
<path d="M6937 8019 c-70 -16 -148 -61 -211 -119 -108 -102 -151 -210 -144
-369 3 -86 7 -105 40 -174 49 -103 122 -175 225 -225 77 -37 79 -37 204 -37
124 0 125 0 201 38 169 83 268 241 268 427 -1 264 -215 473 -483 469 -34 -1
-79 -5 -100 -10z"/>
<path d="M3895 7949 c-127 -44 -213 -123 -273 -249 -33 -67 -37 -85 -40 -171
-7 -156 35 -265 138 -363 303 -289 799 -81 800 334 0 186 -98 343 -266 427
-74 36 -83 38 -188 41 -92 2 -121 -1 -171 -19z"/>
<path d="M9261 7904 c-119 -32 -243 -129 -295 -232 -124 -245 -34 -529 206
-646 221 -108 484 -35 611 171 52 83 70 157 65 273 -4 96 -8 112 -40 180 -98
203 -333 312 -547 254z"/>
<path d="M1898 7727 c-130 -45 -223 -130 -285 -262 -26 -56 -28 -69 -28 -186
0 -125 0 -125 38 -201 103 -210 326 -311 552 -253 120 31 246 136 299 248 85
180 54 381 -81 527 -127 137 -319 187 -495 127z"/>
<path d="M7800 7120 l0 -280 -1585 0 -1585 0 0 -340 0 -340 1585 0 1585 0 0
-279 0 -280 878 435 c482 240 881 439 885 443 4 4 -362 198 -815 431 -453 232
-851 438 -885 457 l-63 34 0 -281z"/>
<path d="M3055 7096 c-154 -49 -265 -157 -315 -307 -18 -54 -21 -81 -18 -170
3 -99 6 -110 41 -183 196 -396 771 -337 882 91 40 154 -4 320 -118 441 -94 99
-200 142 -345 141 -48 0 -105 -6 -127 -13z"/>
<path d="M1110 6796 c-235 -51 -399 -292 -361 -532 39 -256 288 -437 540 -394
256 43 432 284 393 536 -43 272 -302 449 -572 390z"/>
<path d="M4238 5981 c-341 -109 -440 -552 -177 -795 94 -88 192 -125 325 -126
187 0 347 105 431 285 26 56 28 69 28 186 0 125 0 125 -38 203 -63 127 -171
218 -301 252 -72 19 -199 17 -268 -5z"/>
<path d="M2925 5938 c-124 -23 -258 -123 -319 -237 -126 -236 -32 -534 204
-649 318 -154 680 71 680 423 0 302 -266 520 -565 463z"/>
<path d="M6738 5841 c-84 -27 -138 -63 -201 -130 -320 -346 10 -895 468 -776
131 35 239 124 302 253 38 76 38 77 38 201 0 125 0 127 -37 204 -50 103 -122
176 -225 225 -73 34 -85 37 -183 39 -81 2 -118 -1 -162 -16z"/>
<path d="M8655 5766 c-125 -30 -251 -132 -307 -248 -35 -71 -47 -126 -48 -208
0 -186 98 -343 266 -427 78 -38 78 -38 203 -38 125 0 127 0 204 37 101 49 171
118 222 221 34 70 39 86 43 175 7 160 -37 272 -148 375 -120 111 -276 152
-435 113z"/>
<path d="M1407 5629 c-119 -28 -258 -140 -310 -250 -126 -268 8 -576 287 -661
56 -17 86 -20 167 -16 89 4 107 9 175 42 98 49 171 122 220 220 33 68 38 86
42 175 4 81 1 111 -16 167 -48 157 -173 278 -327 319 -64 16 -177 18 -238 4z"/>
<path d="M2353 3656 c-235 -57 -392 -292 -354 -528 41 -260 276 -434 536 -397
255 36 436 281 397 536 -43 276 -309 454 -579 389z"/>
<path d="M6025 1456 c-132 -43 -230 -128 -291 -250 -33 -67 -37 -86 -42 -171
-6 -118 14 -200 68 -283 170 -262 535 -298 743 -73 88 96 126 195 127 327 0
187 -106 348 -285 431 -52 24 -74 28 -170 30 -71 2 -124 -2 -150 -11z"/>
<path d="M2873 1015 c-122 -33 -238 -123 -295 -231 -128 -238 -31 -535 212
-652 68 -32 84 -36 180 -40 116 -5 190 13 273 65 348 214 266 755 -128 858
-72 18 -172 18 -242 0z"/>
</g>
</svg>
