<?xml version="1.0" standalone="no"?>
<!DOCTYPE svg PUBLIC "-//W3C//DTD SVG 20010904//EN"
 "http://www.w3.org/TR/2001/REC-SVG-20010904/DTD/svg10.dtd">
<svg version="1.0" xmlns="http://www.w3.org/2000/svg"
 width="932.000000pt" height="938.000000pt" viewBox="0 0 932.000000 938.000000"
 preserveAspectRatio="xMidYMid meet">
<metadata>
Created by potrace 1.13, written by Peter Selinger 2001-2015
</metadata>
<g transform="translate(0.000000,938.000000) scale(0.100000,-0.100000)"
fill="#660000" stroke="none">
<path d="M0 4695 l0 -4685 4660 0 4660 0 0 4685 0 4685 -4660 0 -4660 0 0
-4685z m8948 -3 l2 -4312 -4290 0 -4290 0 2 2088 3 2087 2992 3 2993 2 2 -475
3 -475 975 840 c536 463 976 844 977 848 2 7 -1932 1743 -1949 1750 -4 2 -8
-224 -8 -502 l0 -506 -2992 2 -2993 3 -3 1470 c-1 809 0 1476 3 1483 3 10 866
12 4287 10 l4283 -3 3 -4313z"/>
<path d="M2060 3819 c-139 -8 -392 -34 -451 -46 l-29 -5 0 -1369 0 -1369 370
0 370 0 0 473 0 472 203 1 c286 1 472 37 664 129 264 126 409 297 481 564 21
83 25 118 26 256 1 125 -3 175 -18 230 -25 96 -93 237 -151 314 -129 170 -362
289 -657 336 -123 20 -582 28 -808 14z m607 -565 c42 -8 97 -26 122 -39 136
-69 200 -229 156 -390 -38 -143 -146 -234 -318 -269 -77 -16 -219 -21 -276
-10 l-31 7 0 348 0 349 23 5 c81 18 236 18 324 -1z"/>
</g>
</svg>
