<?xml version="1.0" standalone="no"?>
<!DOCTYPE svg PUBLIC "-//W3C//DTD SVG 20010904//EN"
 "http://www.w3.org/TR/2001/REC-SVG-20010904/DTD/svg10.dtd">
<svg version="1.0" xmlns="http://www.w3.org/2000/svg"
 width="1481.000000pt" height="679.000000pt" viewBox="0 0 1481.000000 679.000000"
 preserveAspectRatio="xMidYMid meet">
<metadata>
Created by potrace 1.13, written by Peter Selinger 2001-2015
</metadata>
<g transform="translate(0.000000,679.000000) scale(0.100000,-0.100000)"
fill="#660000" stroke="none">
<path d="M545 6774 c-192 -37 -379 -183 -469 -364 -83 -169 -77 92 -74 -3055
l3 -2800 28 -80 c75 -213 239 -376 452 -447 l70 -23 6820 -3 c6233 -2 6826 -1
6895 14 207 44 383 185 477 379 68 144 63 -81 61 3032 l-3 2818 -23 65 c-40
112 -91 190 -176 276 -90 90 -153 129 -271 171 l-80 28 -6820 2 c-5757 1
-6831 -1 -6890 -13z m13687 -377 c63 -25 139 -94 169 -154 13 -26 27 -49 31
-51 10 -5 10 -562 1 -562 -4 0 -280 -58 -613 -130 -3360 -719 -5749 -1140
-6465 -1140 -726 0 -3278 457 -6555 1175 -217 48 -403 87 -413 88 -18 1 -18
14 -15 277 l3 275 28 55 c49 94 114 149 210 175 44 12 1022 13 6812 12 6540
-2 6762 -3 6807 -20z m-13312 -1187 c2633 -572 4836 -985 5860 -1099 527 -59
796 -52 1475 40 1168 158 3483 598 5906 1124 140 30 261 55 267 55 9 0 12 -71
12 -275 l0 -275 -22 -5 c-35 -7 -1468 -213 -2153 -309 -2521 -353 -3992 -533
-4701 -577 -264 -17 -562 4 -1334 92 -1077 122 -3586 471 -5625 783 -160 25
-222 31 -228 22 -5 -6 -6 72 -3 173 3 101 6 226 6 277 l0 92 38 -9 c20 -4 246
-53 502 -109z m7051 -2390 c1242 -61 3156 -280 5478 -626 493 -73 935 -141
969 -149 l22 -5 0 -305 c0 -260 -2 -305 -15 -305 -7 0 -193 39 -412 86 -2579
555 -4778 969 -5888 1108 -601 76 -834 80 -1330 25 -1079 -120 -3413 -561
-6163 -1164 -139 -30 -255 -55 -258 -55 -2 0 -3 129 -2 287 l3 288 320 52
c2470 407 4877 704 6195 766 169 8 899 6 1081 -3z m-231 -445 c771 -77 2070
-299 3925 -670 1056 -211 2753 -569 2768 -584 5 -5 7 -120 5 -257 -3 -236 -4
-252 -27 -301 -29 -66 -111 -143 -176 -169 -49 -19 -160 -19 -6835 -19 l-6785
0 -57 28 c-69 34 -139 109 -164 175 -15 39 -18 88 -22 298 l-3 251 23 6 c116
29 1365 297 2013 432 2274 473 3902 758 4720 825 142 11 418 5 615 -15z"/>
</g>
</svg>
