<?xml version="1.0" standalone="no"?>
<!DOCTYPE svg PUBLIC "-//W3C//DTD SVG 20010904//EN"
 "http://www.w3.org/TR/2001/REC-SVG-20010904/DTD/svg10.dtd">
<svg version="1.0" xmlns="http://www.w3.org/2000/svg"
 width="150.000000pt" height="134.000000pt" viewBox="0 0 150.000000 134.000000"
 preserveAspectRatio="xMidYMid meet">
<metadata>
Created by potrace 1.13, written by Peter Selinger 2001-2015
</metadata>
<g transform="translate(0.000000,134.000000) scale(0.100000,-0.100000)"
fill="#660000" stroke="none">
<path d="M649 1280 c-22 -74 1 -112 85 -137 16 -4 38 -20 50 -36 l20 -27 -54
-58 -55 -57 52 49 c47 44 73 53 73 23 0 -6 -26 -39 -57 -72 l-58 -60 62 60 63
59 57 -54 58 -55 -48 51 c-43 45 -46 52 -32 64 14 11 22 7 63 -31 l47 -44 -45
47 c-43 46 -43 48 -25 63 34 25 64 29 85 10 24 -22 25 -39 5 -130 -28 -133
-143 -392 -204 -458 -41 -45 -141 -118 -175 -128 -40 -12 -49 -1 -70 86 -20
87 -20 114 0 234 15 86 15 116 4 284 -10 143 -11 190 -2 199 16 16 15 89 -1
109 -10 14 -12 7 -12 -40 0 -33 -4 -56 -11 -56 -5 0 -37 -25 -70 -55 l-59 -55
3 -512 2 -513 48 0 c63 0 153 24 216 58 77 41 200 164 272 272 62 95 134 235
169 335 9 28 23 64 30 80 7 17 23 66 35 109 18 63 20 83 10 100 -16 28 -101
96 -121 96 -8 0 -26 11 -39 25 -23 25 -60 32 -95 19 -9 -4 -32 -27 -51 -52
l-34 -45 0 39 c0 22 -9 54 -20 72 -20 32 -23 34 -70 30 -42 -4 -53 -1 -71 18
-18 19 -21 32 -17 74 3 27 4 50 2 50 -2 0 -9 -18 -15 -40z"/>
</g>
</svg>
